{"title":"Sucker.Punch.2011.Extended.Cut.BDRip.XviD-EXViD","uid":6666777,"size":1466106287,"categoryP":"video","categoryS":"movies","magnet":"?xt=urn:btih:260c2bc3ef7203b697149fb52a815ab780caa9d7&amp;dn=Sucker.Punch.2011.Extended.Cut.BDRip.XviD-EXViD&amp;tr=udp%3A%2F%2Ftracker.openbittorrent.com%3A80&amp;tr=udp%3A%2F%2Fopen.demonii.com%3A1337&amp;tr=udp%3A%2F%2Ftracker.coppersurfer.tk%3A6969&amp;tr=udp%3A%2F%2Fexodus.desync.com%3A6969","seeders":0,"leechers":1,"uploader":"TvTeam","files":5,"time":1315716570,"description":". \n  &lt;a href=&quot;\nhttp://www.torrenting.com/&quot; rel=&quot;nofollow&quot; target=&quot;_NEW&quot;&gt;\nhttp://www.torrenting.com/&lt;/a&gt;        :     Greatest Movie Tracker on The Net!!!\n &lt;a href=&quot;\nhttp://www.Torrenting.com&quot; rel=&quot;nofollow&quot; target=&quot;_NEW&quot;&gt;\nhttp://www.Torrenting.com&lt;/a&gt;          :     Once &amp; For all ;)\n\n\n               www . Torrenting . Com \n\n(((((((((((((= Enjoy No RAR releases =))))))))))))))))))))\n\n\n...................................NFO:....................................\n\n.                                                                                                     \n       \n     \n     \n       \n       \n     \n     \n                                         \n                                         \n                EXVID                    \n                                         \n         \n                                         \n         Filled the Archives             \n                                         \n         \n                                         \n                With:                    \n                                         \n         \n                                         \n                                    \n     E240                           \n                                    \n     SP               (C) 2009      \n                                         \n     \n     \n     \n                                                                                  \n                                                                                   \n             Sucker.Punch.2011.Extended.Cut.BDRip.XviD-EXViD                        \n                                                                                   \n                                                                                  \n     \n                                                                                               \nEXViD aims to iNTERNAL those releases which have been lost in the archives.\nEXViD aims to PRE non-internal releases which have poor sources and are likely skipped by others.\n &lt;a href=&quot;\nhttp://www.imdb.com/title/tt0978764/&quot; rel=&quot;nofollow&quot; target=&quot;_NEW&quot;&gt;\nhttp://www.imdb.com/title/tt0978764/&lt;/a&gt;\nSubtitles: English\nDate: 2011.09\n\nDirector: Zack Snyder\n\nGenres: Action | Adventure | Fantasy | Thriller\n\nPlot:\nA young girl is institutionalized by her abusive stepfather. Retreating to an alternative\nreality as a coping strategy, she envisions a plan which will help her escape from the mental\nfacility.\n\nCast:\nEmily Browning \t ... \t Baby Doll\nAbbie Cornish \t ... \t Sweet Pea\nJena Malone \t ... \t Rocket\nVanessa Hudgens \t ... \t Blondie\nJamie Chung \t ... \t Amber\nCarla Gugino \t ... \t Dr. Vera Gorski\nOscar Isaac \t ... \t Blue Jones\nJon Hamm \t ... \t High Roller / Doctor\nScott Glenn \t ... \t Wise Man\nRichard Cetrone \t ... \t CJ\nGerard Plunkett \t ... \t Stepfather\nMalcolm Scott \t ... \t The Cook\nRon Selmour \t ... \t Danforth\nAlan C. Peterson \t ... \t Mayor / Lighter Orderly (as AC Peterson)\nRevard Dufresne \t ... \t Big Boss Thug / Orderly #3\n\nStats:\nFormat                           : AVI\nFormat/Info                      : Audio Video Interleave\nFile size                        : 1.37 GiB\nDuration                         : 2h 7mn\nOverall bit rate                 : 1 533 Kbps\nWriting application              : Nandub v1.0rc2\nWriting library                  : Nandub build 1852/release\n\nVideo\nID                               : 0\nFormat                           : MPEG-4 Visual\nFormat profile                   : Advanced Simple@L5\nFormat settings, BVOP            : 1\nFormat settings, QPel            : No\nFormat settings, GMC             : No warppoints\nFormat settings, Matrix          : Default (H.263)\nCodec ID                         : XVID\nCodec ID/Hint                    : XviD\nDuration                         : 2h 7mn\nBit rate                         : 1 078 Kbps\nWidth                            : 624 pixels\nHeight                           : 256 pixels\nDisplay aspect ratio             : 2.40:1\nFrame rate                       : 23.976 fps\nColor space                      : YUV\nChroma subsampling               : 4:2:0\nBit depth                        : 8 bits\nScan type                        : Progressive\nCompression mode                 : Lossy\nBits/(Pixel*Frame)               : 0.282\nStream size                      : 984 MiB (70%)\nWriting library                  : XviD 64\n\nAudio\nID                               : 1\nFormat                           : AC-3\nFormat/Info                      : Audio Coding 3\nMode extension                   : CM (complete main)\nCodec ID                         : 2000\nDuration                         : 2h 7mn\nBit rate mode                    : Constant\nBit rate                         : 448 Kbps\nChannel(s)                       : 6 channels\nChannel positions                : Front: L C R, Side: L R, LFE\nSampling rate                    : 48.0 KHz\nBit depth                        : 16 bits\nCompression mode                 : Lossy\nStream size                      : 409 MiB (29%)\nAlignment                        : Aligned on interleaves\nInterleave, duration             : 96 ms (2.30 video frames)\nInterleave, preload duration     : 96 ms\n\n\n\n\nRelease notes:\nDEFACED did the THEATRiCAL cut. This is the EXTENDED cut which is 17 minutes longer.\n\nenjoy!\n\nLooking for:\n75TB+ Archives\nDUTCH/FLEMiSH Archives\n                                                                                                    \nGreets: CRBS EPiSODE FiCO FLS iLS KLASSiGER LiPSYNC MADE NODLABS RUNNER SPRiNTER      \n   \n\n                                                                    ASCII DONE BY XX^NFO 2oo9","torrent":{"xt":"urn:btih:260c2bc3ef7203b697149fb52a815ab780caa9d7","amp;dn":"Sucker.Punch.2011.Extended.Cut.BDRip.XviD-EXViD","amp;tr":["udp%3A%2F%2Ftracker.openbittorrent.com%3A80","udp%3A%2F%2Fopen.demonii.com%3A1337","udp%3A%2F%2Ftracker.coppersurfer.tk%3A6969","udp%3A%2F%2Fexodus.desync.com%3A6969"],"infoHash":"260c2bc3ef7203b697149fb52a815ab780caa9d7","infoHashBuffer":{"type":"Buffer","data":[38,12,43,195,239,114,3,182,151,20,159,181,42,129,90,183,128,202,169,215]},"announce":[],"urlList":[]}}